<svg width="56" height="56" viewBox="0 0 56 56" fill="none" xmlns="http://www.w3.org/2000/svg">
<circle cx="28" cy="28" r="28" fill="white"/>
<circle cx="28" cy="28" r="27.5" stroke="#E8E8E8" stroke-opacity="0.31"/>
<g clip-path="url(#clip0_4029_237)">
<path d="M25.4332 38C24.9098 37.9969 24.3929 37.8833 23.9165 37.6667C23.4012 37.4395 22.9622 37.0689 22.6519 36.599C22.3416 36.1291 22.1731 35.5798 22.1665 35.0167V20.9833C22.1731 20.4202 22.3416 19.8709 22.6519 19.401C22.9622 18.9311 23.4012 18.5605 23.9165 18.3333C24.5094 18.0533 25.1691 17.9454 25.8203 18.022C26.4715 18.0986 27.0881 18.3567 27.5998 18.7667L36.0998 25.7833C36.4332 26.0487 36.7023 26.3858 36.8874 26.7696C37.0724 27.1534 37.1685 27.5739 37.1685 28C37.1685 28.4261 37.0724 28.8466 36.8874 29.2304C36.7023 29.6142 36.4332 29.9513 36.0998 30.2167L27.5998 37.2333C26.9871 37.7302 26.222 38.0009 25.4332 38Z" fill="#24AB70"/>
</g>
<defs>
<clipPath id="clip0_4029_237">
<rect width="40" height="40" fill="white" transform="translate(8 8)"/>
</clipPath>
</defs>
</svg>
