<svg width="131" height="18" viewBox="0 0 131 18" fill="none" xmlns="http://www.w3.org/2000/svg">
<path d="M116.828 12.375H115.133V15H113.891V12.375H108.336V11.2422L113.758 3.51562H115.133V11.1953H116.828V12.375ZM113.891 11.1953V7.39844C113.891 6.65365 113.917 5.8125 113.969 4.875H113.906C113.656 5.375 113.422 5.78906 113.203 6.11719L109.633 11.1953H113.891ZM118.344 14.1719C118.344 13.8229 118.422 13.5599 118.578 13.3828C118.74 13.2005 118.969 13.1094 119.266 13.1094C119.568 13.1094 119.802 13.2005 119.969 13.3828C120.141 13.5599 120.227 13.8229 120.227 14.1719C120.227 14.5104 120.141 14.7708 119.969 14.9531C119.797 15.1354 119.562 15.2266 119.266 15.2266C119 15.2266 118.779 15.1458 118.602 14.9844C118.43 14.8177 118.344 14.5469 118.344 14.1719ZM125.984 3.41406C127.026 3.41406 127.852 3.65625 128.461 4.14062C129.07 4.625 129.375 5.29427 129.375 6.14844C129.375 6.71094 129.201 7.22396 128.852 7.6875C128.503 8.15104 127.945 8.57292 127.18 8.95312C128.107 9.39583 128.766 9.86198 129.156 10.3516C129.547 10.8359 129.742 11.3984 129.742 12.0391C129.742 12.987 129.411 13.7448 128.75 14.3125C128.089 14.875 127.182 15.1562 126.031 15.1562C124.812 15.1562 123.875 14.8906 123.219 14.3594C122.562 13.8229 122.234 13.0651 122.234 12.0859C122.234 10.7786 123.031 9.76042 124.625 9.03125C123.906 8.625 123.391 8.1875 123.078 7.71875C122.766 7.24479 122.609 6.71615 122.609 6.13281C122.609 5.30469 122.914 4.64583 123.523 4.15625C124.138 3.66146 124.958 3.41406 125.984 3.41406ZM123.516 12.1172C123.516 12.7422 123.732 13.2292 124.164 13.5781C124.602 13.9271 125.214 14.1016 126 14.1016C126.776 14.1016 127.38 13.9193 127.812 13.5547C128.245 13.1901 128.461 12.6901 128.461 12.0547C128.461 11.5495 128.258 11.1016 127.852 10.7109C127.445 10.3151 126.737 9.93229 125.727 9.5625C124.951 9.89583 124.388 10.2656 124.039 10.6719C123.69 11.0729 123.516 11.5547 123.516 12.1172ZM125.969 4.46875C125.318 4.46875 124.807 4.625 124.438 4.9375C124.068 5.25 123.883 5.66667 123.883 6.1875C123.883 6.66667 124.036 7.07812 124.344 7.42188C124.651 7.76562 125.219 8.10938 126.047 8.45312C126.792 8.14062 127.318 7.80469 127.625 7.44531C127.938 7.08594 128.094 6.66667 128.094 6.1875C128.094 5.66146 127.904 5.24479 127.523 4.9375C127.148 4.625 126.63 4.46875 125.969 4.46875Z" fill="#222222"/>
<g clip-path="url(#clip0_4029_16)">
<path d="M11.7065 15C11.5999 15.0004 11.4947 14.9753 11.3998 14.9266L7.99984 13.1466L4.59984 14.9266C4.48944 14.9847 4.36496 15.0106 4.24056 15.0014C4.11616 14.9923 3.99683 14.9484 3.89613 14.8748C3.79543 14.8012 3.7174 14.7008 3.67092 14.585C3.62443 14.4693 3.61136 14.3428 3.63318 14.22L4.29984 10.4666L1.55318 7.79997C1.46748 7.71446 1.40669 7.60722 1.37733 7.48977C1.34796 7.37232 1.35114 7.24909 1.38651 7.13331C1.42515 7.01482 1.49623 6.90954 1.59168 6.82941C1.68712 6.74928 1.80312 6.69751 1.92651 6.67997L5.72651 6.12664L7.39984 2.70664C7.45443 2.59393 7.53967 2.49887 7.64578 2.43236C7.7519 2.36584 7.8746 2.33057 7.99984 2.33057C8.12508 2.33057 8.24779 2.36584 8.3539 2.43236C8.46002 2.49887 8.54525 2.59393 8.59984 2.70664L10.2932 6.11997L14.0932 6.67331C14.2166 6.69084 14.3326 6.74262 14.428 6.82275C14.5235 6.90288 14.5945 7.00816 14.6332 7.12664C14.6685 7.24242 14.6717 7.36565 14.6424 7.4831C14.613 7.60055 14.5522 7.70779 14.4665 7.79331L11.7198 10.46L12.3865 14.2133C12.4103 14.3383 12.3978 14.4675 12.3506 14.5856C12.3033 14.7037 12.2233 14.8059 12.1198 14.88C11.9991 14.9646 11.8538 15.0068 11.7065 15Z" fill="#F95F5F"/>
</g>
<g clip-path="url(#clip1_4029_16)">
<path d="M31.7065 15C31.5999 15.0004 31.4947 14.9753 31.3998 14.9266L27.9998 13.1466L24.5998 14.9266C24.4894 14.9847 24.365 15.0106 24.2406 15.0014C24.1162 14.9923 23.9968 14.9484 23.8961 14.8748C23.7954 14.8012 23.7174 14.7008 23.6709 14.585C23.6244 14.4693 23.6114 14.3428 23.6332 14.22L24.2998 10.4666L21.5532 7.79997C21.4675 7.71446 21.4067 7.60722 21.3773 7.48977C21.348 7.37232 21.3511 7.24909 21.3865 7.13331C21.4251 7.01482 21.4962 6.90954 21.5917 6.82941C21.6871 6.74928 21.8031 6.69751 21.9265 6.67997L25.7265 6.12664L27.3998 2.70664C27.4544 2.59393 27.5397 2.49887 27.6458 2.43236C27.7519 2.36584 27.8746 2.33057 27.9998 2.33057C28.1251 2.33057 28.2478 2.36584 28.3539 2.43236C28.46 2.49887 28.5453 2.59393 28.5998 2.70664L30.2932 6.11997L34.0932 6.67331C34.2166 6.69084 34.3326 6.74262 34.428 6.82275C34.5235 6.90288 34.5945 7.00816 34.6332 7.12664C34.6685 7.24242 34.6717 7.36565 34.6424 7.4831C34.613 7.60055 34.5522 7.70779 34.4665 7.79331L31.7198 10.46L32.3865 14.2133C32.4103 14.3383 32.3978 14.4675 32.3506 14.5856C32.3033 14.7037 32.2233 14.8059 32.1198 14.88C31.9991 14.9646 31.8538 15.0068 31.7065 15Z" fill="#F95F5F"/>
</g>
<g clip-path="url(#clip2_4029_16)">
<path d="M51.7065 15C51.5999 15.0004 51.4947 14.9753 51.3998 14.9266L47.9998 13.1466L44.5998 14.9266C44.4894 14.9847 44.365 15.0106 44.2406 15.0014C44.1162 14.9923 43.9968 14.9484 43.8961 14.8748C43.7954 14.8012 43.7174 14.7008 43.6709 14.585C43.6244 14.4693 43.6114 14.3428 43.6332 14.22L44.2998 10.4666L41.5532 7.79997C41.4675 7.71446 41.4067 7.60722 41.3773 7.48977C41.348 7.37232 41.3511 7.24909 41.3865 7.13331C41.4251 7.01482 41.4962 6.90954 41.5917 6.82941C41.6871 6.74928 41.8031 6.69751 41.9265 6.67997L45.7265 6.12664L47.3998 2.70664C47.4544 2.59393 47.5397 2.49887 47.6458 2.43236C47.7519 2.36584 47.8746 2.33057 47.9998 2.33057C48.1251 2.33057 48.2478 2.36584 48.3539 2.43236C48.46 2.49887 48.5453 2.59393 48.5998 2.70664L50.2932 6.11997L54.0932 6.67331C54.2166 6.69084 54.3326 6.74262 54.428 6.82275C54.5235 6.90288 54.5945 7.00816 54.6332 7.12664C54.6685 7.24242 54.6717 7.36565 54.6424 7.4831C54.613 7.60055 54.5522 7.70779 54.4665 7.79331L51.7198 10.46L52.3865 14.2133C52.4103 14.3383 52.3978 14.4675 52.3506 14.5856C52.3033 14.7037 52.2233 14.8059 52.1198 14.88C51.9991 14.9646 51.8538 15.0068 51.7065 15Z" fill="#F95F5F"/>
</g>
<g clip-path="url(#clip3_4029_16)">
<path d="M71.7065 15C71.5999 15.0004 71.4947 14.9753 71.3998 14.9266L67.9998 13.1466L64.5998 14.9266C64.4894 14.9847 64.365 15.0106 64.2406 15.0014C64.1162 14.9923 63.9968 14.9484 63.8961 14.8748C63.7954 14.8012 63.7174 14.7008 63.6709 14.585C63.6244 14.4693 63.6114 14.3428 63.6332 14.22L64.2998 10.4666L61.5532 7.79997C61.4675 7.71446 61.4067 7.60722 61.3773 7.48977C61.348 7.37232 61.3511 7.24909 61.3865 7.13331C61.4251 7.01482 61.4962 6.90954 61.5917 6.82941C61.6871 6.74928 61.8031 6.69751 61.9265 6.67997L65.7265 6.12664L67.3998 2.70664C67.4544 2.59393 67.5397 2.49887 67.6458 2.43236C67.7519 2.36584 67.8746 2.33057 67.9998 2.33057C68.1251 2.33057 68.2478 2.36584 68.3539 2.43236C68.46 2.49887 68.5453 2.59393 68.5998 2.70664L70.2932 6.11997L74.0932 6.67331C74.2166 6.69084 74.3326 6.74262 74.428 6.82275C74.5235 6.90288 74.5945 7.00816 74.6332 7.12664C74.6685 7.24242 74.6717 7.36565 74.6424 7.4831C74.613 7.60055 74.5522 7.70779 74.4665 7.79331L71.7198 10.46L72.3865 14.2133C72.4103 14.3383 72.3978 14.4675 72.3506 14.5856C72.3033 14.7037 72.2233 14.8059 72.1198 14.88C71.9991 14.9646 71.8538 15.0068 71.7065 15Z" fill="#F95F5F"/>
</g>
<g clip-path="url(#clip4_4029_16)">
<path d="M91.7065 15C91.5999 15.0004 91.4947 14.9753 91.3998 14.9266L87.9998 13.1466L84.5998 14.9266C84.4894 14.9847 84.365 15.0106 84.2406 15.0014C84.1162 14.9923 83.9968 14.9484 83.8961 14.8748C83.7954 14.8012 83.7174 14.7008 83.6709 14.585C83.6244 14.4693 83.6114 14.3428 83.6332 14.22L84.2998 10.4666L81.5532 7.79997C81.4675 7.71446 81.4067 7.60722 81.3773 7.48977C81.348 7.37232 81.3511 7.24909 81.3865 7.13331C81.4251 7.01482 81.4962 6.90954 81.5917 6.82941C81.6871 6.74928 81.8031 6.69751 81.9265 6.67997L85.7265 6.12664L87.3998 2.70664C87.4544 2.59393 87.5397 2.49887 87.6458 2.43236C87.7519 2.36584 87.8746 2.33057 87.9998 2.33057C88.1251 2.33057 88.2478 2.36584 88.3539 2.43236C88.46 2.49887 88.5453 2.59393 88.5998 2.70664L90.2932 6.11997L94.0932 6.67331C94.2166 6.69084 94.3326 6.74262 94.428 6.82275C94.5235 6.90288 94.5945 7.00816 94.6332 7.12664C94.6685 7.24242 94.6717 7.36565 94.6424 7.4831C94.613 7.60055 94.5522 7.70779 94.4665 7.79331L91.7198 10.46L92.3865 14.2133C92.4103 14.3383 92.3978 14.4675 92.3506 14.5856C92.3033 14.7037 92.2233 14.8059 92.1198 14.88C91.9991 14.9646 91.8538 15.0068 91.7065 15Z" fill="#E5E5E5"/>
</g>
<defs>
<clipPath id="clip0_4029_16">
<rect width="16" height="16" fill="white" transform="translate(0 1)"/>
</clipPath>
<clipPath id="clip1_4029_16">
<rect width="16" height="16" fill="white" transform="translate(20 1)"/>
</clipPath>
<clipPath id="clip2_4029_16">
<rect width="16" height="16" fill="white" transform="translate(40 1)"/>
</clipPath>
<clipPath id="clip3_4029_16">
<rect width="16" height="16" fill="white" transform="translate(60 1)"/>
</clipPath>
<clipPath id="clip4_4029_16">
<rect width="16" height="16" fill="white" transform="translate(80 1)"/>
</clipPath>
</defs>
</svg>
