<svg width="40" height="40" viewBox="0 0 40 40" fill="none" xmlns="http://www.w3.org/2000/svg">
<path d="M21.1274 7.67151H16.4807C15.8238 7.67151 15.3088 8.20885 15.3088 8.84338V25.5317C15.3088 26.1789 15.8335 26.7035 16.4807 26.7035C17.1279 26.7035 17.6526 26.1789 17.6526 25.5317V19.4483C18.7401 19.4422 20.3316 19.4342 21.1275 19.4342C22.6982 19.4342 24.1876 18.8263 25.3212 17.7225C26.4689 16.605 27.101 15.1242 27.101 13.5528C27.101 11.9815 26.4689 10.5006 25.3212 9.38307C24.1875 8.2794 22.6982 7.67151 21.1274 7.67151ZM21.1274 17.0904C20.3362 17.0904 18.7673 17.0983 17.6782 17.1044C17.6584 13.4546 17.6698 14.6819 17.6561 10.0153H21.1274C23.095 10.0153 24.7572 11.6353 24.7572 13.5528C24.7572 15.4704 23.095 17.0904 21.1274 17.0904Z" fill="#24AB70"/>
<path d="M32.1534 5.03406C28.9072 1.78781 24.591 0 20 0C15.4089 0 11.0928 1.78781 7.84653 5.03406C-1.59058 14.4712 2.89169 30.739 15.9375 33.8911V38.0469C15.9375 39.1238 16.8136 40 17.8906 40H22.1093C23.1863 40 24.0625 39.1238 24.0625 38.0469V33.8911C37.1208 30.7359 41.5839 14.4645 32.1534 5.03406ZM21.7187 37.6562H18.2812V34.2899C19.4211 34.403 20.5789 34.403 21.7187 34.2899V37.6562ZM22.6802 31.7902C13.645 33.4389 5.15622 26.5484 5.15622 17.1875C5.15622 9.00266 11.815 2.34375 20 2.34375C28.1849 2.34375 34.8437 9.00266 34.8437 17.1875C34.8437 24.3529 29.7408 30.5017 22.6802 31.7902Z" fill="#24AB70"/>
</svg>
